PathFileType	4	(X/Y/Z)	C:/Users/opensim2020/Desktop/walking_exp_matlab/subject02_walking10_straight_03.trc																																																																																																																															
DataRate	CameraRate	NumFrames	NumMarkers	Units	OrigDataRate	OrigDataStartFrame	OrigNumFrames																																																																																																																											
100	100	8	43	mm	100	2325	270																																																																																																																											
Frame#	Time	LFHD			RFHD			LBHD			RBHD			C7			T10			CLAV			STRN			RBAK			LSHO			LUPA			LELB			LFRM			LWRA			LWRB			LFIN			RSHO			RUPA			RELB			RFRM			RWRA			RWRB			RFIN			LASI			RASI			LPSI			RPSI			LTHI			LKNE			LTIB			LANK			LHEE			LTOE			RTHI			RKNE			RTIB			RANK			RHEE			RTOE			*39			*40			*41			*42		
		X1	Y1	Z1	X2	Y2	Z2	X3	Y3	Z3	X4	Y4	Z4	X5	Y5	Z5	X6	Y6	Z6	X7	Y7	Z7	X8	Y8	Z8	X9	Y9	Z9	X10	Y10	Z10	X11	Y11	Z11	X12	Y12	Z12	X13	Y13	Z13	X14	Y14	Z14	X15	Y15	Z15	X16	Y16	Z16	X17	Y17	Z17	X18	Y18	Z18	X19	Y19	Z19	X20	Y20	Z20	X21	Y21	Z21	X22	Y22	Z22	X23	Y23	Z23	X24	Y24	Z24	X25	Y25	Z25	X26	Y26	Z26	X27	Y27	Z27	X28	Y28	Z28	X29	Y29	Z29	X30	Y30	Z30	X31	Y31	Z31	X32	Y32	Z32	X33	Y33	Z33	X34	Y34	Z34	X35	Y35	Z35	X36	Y36	Z36	X37	Y37	Z37	X38	Y38	Z38	X39	Y39	Z39	X40	Y40	Z40	X41	Y41	Z41	X42	Y42	Z42	X43	Y43	Z43
																																																																																																																																		
136	1.35	-26.23757	1745.33875	1370.49133	1.52395	1733.20117	1511.75269	-148.88249	1659.81934	1387.82898	-133.88724	1644.46594	1530.03381	-182.04167	1524.54919	1452.69458	-230.46013	1247.72498	1447.06287	-43.25112	1459.3905	1445.2627	11.06351	1287.84766	1459.17151	-240.49866	1349.18213	1511.39563	-103.18573	1499.64978	1274.12231	-94.4118	1300.36548	1184.13586	-78.19269	1161.34473	1166.88745	-46.0592	1034.10986	1151.32605	26.79604	919.21973	1185.27185	-14.40783	915.20844	1147.16492	17.18536	856.99933	1142.6698	-109.41669	1493.68542	1640.84204	-130.31355	1299.38892	1722.94849	-106.63454	1153.83032	1739.81946	-61.21217	1042.02234	1757.60242	5.69109	924.42303	1734.86218	-39.72776	913.50165	1767.66626	6.85153	857.19012	1768.48645	20.14058	997.664	1329.12964	-4.61729	979.31812	1583.36035	-197.77933	1031.80505	1389.58032	-212.65489	1026.62854	1503.27283	-33.88036	680.59045	1276.29688	-65.47621	478.22903	1309.84338	-119.62291	289.48352	1313.64246	-115.40556	68.16521	1359.92761	-152.05348	40.87253	1410.59277	41.36228	33.3976	1349.30542	-40.84126	678.01245	1668.90125	-2.10356	482.5083	1661.51331	-125.67304	348.36136	1646.19177	-228.04625	188.46617	1601.65161	-263.36548	148.16783	1534.16016	-145.97968	66.89163	1664.17395	-115.0021	1806.14819	1475.45459	2845.89648	1034.0708	-3356.802	NaN	NaN	NaN	NaN	NaN	NaN
137	1.36	-17.79844	1745.83508	1371.06677	9.79334	1732.89355	1512.28247	-140.47238	1660.57434	1387.98645	-125.78242	1644.35754	1529.92578	-174.11456	1524.93677	1451.64392	-223.6953	1248.3999	1446.14355	-35.43001	1459.56311	1444.55188	18.46259	1287.83191	1457.97815	-233.19154	1349.73242	1509.93848	-94.62354	1500.64612	1273.40454	-83.07924	1302.06885	1182.76233	-64.99456	1163.2113	1164.73755	-29.84633	1036.38525	1149.40161	44.95805	923.25641	1184.10364	3.89501	918.23065	1145.50623	36.84333	860.66162	1141.67908	-102.14279	1493.14478	1639.78845	-124.57555	1299.14832	1721.73193	-101.63872	1153.6051	1739.01611	-57.09969	1041.29639	1756.83545	9.21943	923.45819	1734.71741	-36.5102	912.71149	1767.09192	9.84524	856.32715	1768.37231	25.74183	997.58911	1327.42981	2.98448	979.92285	1581.526	-191.54156	1031.85071	1389.85889	-205.62721	1027.55554	1503.82813	-29.58155	680.03186	1276.09326	-62.56273	477.96469	1309.93091	-118.16975	289.64151	1313.81238	-115.3047	68.27796	1360.10144	-151.8562	41.10201	1411.08752	41.36032	33.30688	1349.24561	-30.20294	679.33282	1668.41223	12.10585	484.14072	1660.52148	-107.17489	345.20538	1646.06177	-204.10684	181.71275	1602.14563	-238.67491	139.9594	1535.07129	-116.58283	64.03651	1663.83826	-106.50315	1806.24268	1476.24219	NaN	NaN	NaN	NaN	NaN	NaN	NaN	NaN	NaN
138	1.37	-9.306	1746.23291	1371.78259	18.1123	1732.4231	1513.02441	-132.31572	1661.17334	1387.86963	-117.96084	1644.11768	1529.63135	-166.13301	1525.34448	1450.78394	-216.46124	1248.86609	1445.32483	-27.6555	1459.62585	1443.84717	25.7847	1287.67407	1456.73828	-225.90382	1350.43164	1508.9342	-86.11386	1501.52185	1272.74573	-72.37525	1303.5968	1181.25842	-51.78951	1164.95349	1162.80798	-13.45985	1038.81555	1147.85925	63.0523	927.37585	1183.12219	22.55627	921.42157	1144.38818	56.4899	864.47522	1140.73145	-95.02579	1492.5968	1638.94678	-118.98376	1298.74255	1720.59607	-96.80927	1153.15515	1738.08191	-53.05601	1040.55554	1756.24487	12.63084	922.34167	1734.47937	-33.1042	911.96533	1766.77234	12.82274	855.1875	1768.18542	31.45113	997.29681	1325.78027	10.54012	980.33575	1579.81482	-185.23933	1031.92529	1390.14026	-198.64047	1028.53088	1504.31946	-25.45105	679.4668	1276.37659	-59.72261	477.74274	1309.9845	-116.82181	289.7663	1314.01782	-115.20734	68.35733	1360.32629	-151.75795	41.05863	1411.28076	41.41219	33.22332	1349.19519	-19.66313	680.51764	1667.73389	25.89031	485.43842	1659.26575	-88.58102	341.89661	1646.02319	-179.88112	174.85593	1602.88269	-213.47186	131.40654	1536.1521	-86.62606	61.46894	1663.6228	-97.77675	1806.42212	1477.37451	2845.21655	1034.10974	-3360.33154	NaN	NaN	NaN	NaN	NaN	NaN
139	1.38	-0.56993	1746.42346	1372.61719	26.50406	1731.81653	1513.85352	-123.86619	1661.92224	1388.21387	-109.77743	1644.00195	1529.97461	-158.20532	1525.56592	1449.89771	-209.25052	1249.25342	1444.7074	-19.88268	1459.60229	1443.27246	33.10816	1287.4906	1455.64294	-218.6153	1350.82288	1507.66602	-77.68608	1502.27112	1272.18042	-61.8357	1305.06812	1179.79004	-38.8138	1166.62976	1160.92749	1.77996	1041.42358	1146.2262	80.89957	931.50592	1182.21875	40.9234	924.64618	1143.25415	76.02846	868.44788	1139.87354	-87.70531	1492.02405	1638.34192	-113.34847	1298.30554	1719.42725	-92.13144	1152.48059	1736.96509	-48.80466	1039.94165	1755.97876	16.25214	921.14838	1734.45386	-29.95909	910.98285	1766.24463	15.74033	853.99976	1768.18799	37.28708	996.75653	1324.18555	17.98111	980.57312	1578.2854	-178.88338	1031.95581	1390.42102	-191.62003	1029.36389	1504.72815	-20.75231	679.05249	1275.90356	-57.00905	477.47552	1310.09924	-115.72213	289.98709	1314.30408	-115.14436	68.49664	1360.49268	-151.04114	40.5794	1411.71521	41.46101	33.20286	1349.14502	-9.5476	681.62915	1667.23389	39.22733	486.67804	1657.98352	-69.98145	338.53308	1645.95789	-155.32143	168.13174	1603.80811	-187.46065	122.35791	1537.75757	-56.31607	59.37323	1663.4801	-89.05985	1806.34949	1478.33997	2845.79565	1034.00269	-3356.88086	NaN	NaN	NaN	NaN	NaN	NaN
140	1.39	8.32053	1746.60339	1373.6189	34.91347	1731.07056	1514.83594	-115.45224	1662.4657	1388.39172	-101.94317	1643.66052	1529.76807	-150.48306	1525.97534	1449.25635	-202.08246	1249.57532	1444.1991	-12.16433	1459.48669	1442.72485	40.44284	1287.20764	1454.53076	-211.28812	1350.83484	1506.28247	-69.25949	1502.87231	1271.66602	-51.01394	1306.38123	1178.67688	-25.81346	1168.28491	1159.20239	17.72752	1043.72839	1144.82227	98.56789	935.69232	1181.47058	58.91593	927.90369	1142.23157	95.42102	872.61877	1139.01855	-80.47938	1491.33704	1637.68872	-107.78233	1297.74548	1718.38916	-86.95092	1152.01685	1736.38855	-44.77857	1038.90747	1755.25122	19.96921	920.00256	1734.55334	-26.55352	910.04474	1765.93054	18.72539	852.85248	1768.23474	42.85514	995.80896	1322.52905	25.24208	980.67603	1577.03296	-172.36006	1031.97803	1390.67957	-184.59068	1030.04944	1505.08362	-16.27939	678.42273	1275.89722	-54.40167	477.31079	1310.12305	-114.43377	290.25168	1314.56763	-115.17821	68.79496	1360.73425	-150.92004	40.65852	1411.84998	41.38209	33.06782	1348.97559	0.46273	682.68597	1666.72974	52.06495	487.61429	1656.57703	-51.4279	335.19833	1645.97083	-130.36511	161.34897	1604.92834	-161.56007	113.74937	1539.25977	-25.77982	57.76483	1663.53113	-80.21636	1806.29651	1479.3761	2845.17896	1034.2854	-3360.25659	NaN	NaN	NaN	NaN	NaN	NaN
141	1.4	17.28957	1746.64587	1374.73511	43.38437	1730.17078	1515.9054	-106.90827	1663.06128	1388.61023	-93.95769	1643.32068	1529.98584	-142.48395	1525.88611	1448.55701	-194.91211	1249.78943	1443.8031	-4.40977	1459.2583	1442.31494	47.81518	1286.85376	1453.63147	-203.93214	1351.15735	1505.6272	-60.91725	1503.37012	1271.27417	-39.96848	1307.58289	1177.80847	-13.13671	1169.79724	1157.56165	32.70549	1046.19873	1143.45239	115.95419	939.86322	1180.81104	76.85633	931.0589	1141.46155	114.04819	876.51483	1138.48669	-73.32132	1490.52466	1636.97888	-102.1432	1297.15955	1717.4458	-81.93403	1151.3656	1735.68005	-40.5225	1037.99438	1754.83789	23.5309	918.63257	1734.62109	-23.18726	909.03473	1765.71509	21.63467	851.44128	1768.32666	48.94186	994.88538	1321.15967	32.36184	980.5694	1576.05273	-165.82436	1031.91394	1390.93933	-177.62184	1030.54004	1505.33142	-12.37179	678.0296	1276.28198	-51.74325	477.10419	1310.20898	-113.15258	290.49521	1314.73792	-115.01034	68.73441	1360.79346	-150.94366	40.74566	1411.97754	41.38787	33.03515	1348.87134	10.34309	683.63391	1666.25427	65.05886	488.85776	1655.71191	-32.96589	331.8389	1646.11841	-105.41455	154.63913	1605.96887	-135.47771	105.98515	1541.13464	4.78913	56.46534	1663.72192	-71.4484	1806.08704	1480.36768	2845.17261	1034.19055	-3360.38208	NaN	NaN	NaN	NaN	NaN	NaN
142	1.41	26.39276	1746.52734	1375.89868	51.88905	1729.1521	1517.10278	-98.30978	1663.50159	1388.92322	-85.9978	1642.98743	1530.21191	-134.72348	1525.89307	1447.96863	-187.66293	1249.92224	1443.4873	3.31337	1458.94849	1441.97583	55.09425	1286.4303	1452.75342	-196.58528	1351.1709	1504.7179	-52.6003	1503.78369	1270.948	-29.65373	1308.68677	1176.8479	-0.56211	1171.25281	1156.08911	47.9753	1048.35803	1142.61926	133.02878	944.03821	1180.29321	94.27312	934.42029	1140.75708	133.22499	880.87311	1138.06091	-65.87628	1489.76355	1636.85925	-96.68773	1296.29138	1716.22046	-76.84171	1150.73682	1735.14075	-36.05445	1037.16711	1754.79077	27.41552	917.26801	1734.75415	-19.57316	908.10193	1765.71484	24.8291	850.29132	1768.58362	55.17235	993.80145	1319.93689	39.48049	980.42987	1575.38501	-159.29721	1031.87463	1391.14355	-170.69785	1030.68994	1505.48083	-7.90461	677.43884	1275.99182	-49.04866	476.82794	1310.23657	-111.75739	290.73706	1314.86938	-114.91394	68.82796	1360.92615	-150.91475	40.86084	1412.07361	41.40035	33.00757	1348.76379	19.86376	684.20709	1665.38574	77.49017	489.61279	1654.61584	-14.54637	328.53891	1646.43994	-79.86774	148.41612	1607.67151	-108.49879	97.77132	1543.44531	35.15995	55.47919	1664.09424	-62.27744	1805.97607	1481.8186	2845.2063	1034.06433	-3360.30322	NaN	NaN	NaN	NaN	NaN	NaN
143	1.42	35.65987	1746.27795	1377.22791	60.40971	1727.98462	1518.40088	-89.71898	1663.97009	1389.32654	-77.98705	1642.57458	1530.53369	-126.9599	1525.91528	1447.62439	-180.45406	1249.99231	1443.30237	11.03133	1458.59058	1441.69971	62.47721	1285.91724	1452.04175	-189.15425	1350.80347	1503.6488	-44.29884	1504.02112	1270.71863	-18.71097	1309.60889	1176.42993	11.92569	1172.62573	1154.72119	62.75561	1050.90259	1141.36938	149.88914	948.24109	1179.95081	111.25853	937.66382	1140.10205	151.61565	884.8913	1137.84155	-58.92936	1488.91272	1636.49512	-90.60107	1295.72986	1715.64282	-71.78664	1149.78259	1734.21802	-31.62133	1036.19092	1754.31177	31.02452	915.73767	1734.93115	-16.21967	906.92224	1765.48376	27.96284	848.9129	1768.76331	61.54504	992.71973	1318.98022	47.2998	980.89136	1575.18274	-152.73109	1031.68298	1391.34229	-163.7061	1030.59302	1505.53564	-3.99889	676.98938	1276.0885	-46.34833	476.59192	1310.28491	-110.23744	290.86124	1314.97607	-114.80558	68.93765	1361.05615	-150.8615	40.98335	1412.23047	41.42622	32.93085	1348.65991	29.74296	685.08893	1665.08215	89.58953	490.20413	1653.48352	3.82082	325.20313	1646.85596	-54.30045	142.33893	1609.38123	-82.33536	90.53561	1545.68665	65.36359	54.83248	1664.64771	-53.1561	1805.69458	1483.07068	2845.93579	1034.17102	-3357.00244	NaN	NaN	NaN	NaN	NaN	NaN
